PathFileType	4	(X/Y/Z)	C:/Users/opensim2020/Desktop/walking_exp_matlab/subject03_walking13_straight_02.trc	
DataRate	CameraRate	NumFrames	NumMarkers	Units	OrigDataRate	OrigDataStartFrame	OrigNumFrames	
100.00	100.00	7	46	mm	100.00	1127	193	
Frame#	Time	LFHD			RFHD			LBHD			RBHD			C7			T10			CLAV			STRN			RBAK			LSHO			LUPA			LELB			LFRM			LWRA			LWRB			LFIN			RSHO			RUPA			RELB			RFRM			RWRA			RWRB			RFIN			LASI			RASI			LPSI			RPSI			LTHI			LKNE			LTIB			LANK			LHEE			LTOE			RTHI			RKNE			RTIB			RANK			RHEE			RTOE			*39			*40			*41			*42			*43			*44			*45			
		X1	Y1	Z1	X2	Y2	Z2	X3	Y3	Z3	X4	Y4	Z4	X5	Y5	Z5	X6	Y6	Z6	X7	Y7	Z7	X8	Y8	Z8	X9	Y9	Z9	X10	Y10	Z10	X11	Y11	Z11	X12	Y12	Z12	X13	Y13	Z13	X14	Y14	Z14	X15	Y15	Z15	X16	Y16	Z16	X17	Y17	Z17	X18	Y18	Z18	X19	Y19	Z19	X20	Y20	Z20	X21	Y21	Z21	X22	Y22	Z22	X23	Y23	Z23	X24	Y24	Z24	X25	Y25	Z25	X26	Y26	Z26	X27	Y27	Z27	X28	Y28	Z28	X29	Y29	Z29	X30	Y30	Z30	X31	Y31	Z31	X32	Y32	Z32	X33	Y33	Z33	X34	Y34	Z34	X35	Y35	Z35	X36	Y36	Z36	X37	Y37	Z37	X38	Y38	Z38	X39	Y39	Z39	X40	Y40	Z40	X41	Y41	Z41	X42	Y42	Z42	X43	Y43	Z43	X44	Y44	Z44	X45	Y45	Z45	X46	Y46	Z46	

49	0.480	1462.56702	728.29071	1624.30286	1331.81152	751.27435	1626.80200	1480.81897	854.48425	1579.05481	1351.72192	872.68121	1581.40503	1432.22363	891.47290	1417.15479	1433.94592	919.59210	1103.57434	1409.09509	771.23035	1342.60596	1407.18176	723.99384	1179.09717	1347.29517	957.52063	1238.57361	1570.85388	788.46045	1378.28137	1643.50134	794.45764	1180.55518	1656.12000	799.28741	1057.22229	1658.89978	795.50629	926.96814	1633.77905	807.81348	806.63312	1689.40698	813.18048	817.72382	1684.18030	814.00128	733.53455	1260.72583	848.37238	1365.87097	1191.76990	846.08496	1142.23999	1179.93213	822.13885	1031.46753	1178.75720	792.47791	897.82703	1213.23706	748.63464	808.01837	1173.08972	783.97992	797.51099	1183.24756	751.05109	730.45703	1530.81787	736.51337	951.05402	1296.56897	774.40973	936.42035	1505.51636	904.33545	968.59973	1357.60474	925.16003	963.85626	1582.38403	761.99872	646.78510	1537.47717	749.51147	472.56525	1554.33630	807.28027	280.02979	1523.23145	847.91779	72.90968	1493.93213	895.83337	36.64995	1479.02441	703.14532	35.93969	1264.25598	781.84320	636.04059	1282.98596	717.59949	467.75180	1301.11816	852.30121	337.12402	1363.85168	1003.66870	192.77666	1423.50562	1049.85852	199.14934	1368.67273	935.50549	68.67308				1427.16248	819.36719	1684.97961															 
50	0.490	1462.25989	714.78882	1624.74316	1331.54651	737.80035	1627.21375	1480.84607	841.37897	1580.00244	1351.41504	859.32227	1582.22070	1432.08020	878.56799	1417.95825	1434.67188	906.93695	1104.43945	1408.74329	758.50146	1343.30029	1406.97412	711.43823	1179.78796	1347.27087	944.96143	1239.66833	1570.38928	775.39606	1379.32629	1643.53687	778.76392	1181.86096	1656.41321	780.72302	1058.48633	1658.98132	773.69568	928.37653	1634.99048	780.52148	807.66144	1689.69031	788.31171	818.97693	1685.08655	784.38715	735.55890	1260.59021	835.99353	1366.81677	1191.77124	835.49768	1143.01282	1179.85632	812.62286	1032.10254	1178.23962	785.17804	897.96979	1212.14502	742.86902	807.09155	1172.03723	778.55396	797.46698	1181.76917	747.31659	729.40649	1531.80078	724.34442	950.92535	1297.16797	761.42310	938.42554	1505.59851	891.90894	968.97833	1357.69958	912.48376	965.34210	1581.82971	754.52734	646.17731	1537.32117	745.62323	471.69177	1554.18665	805.54681	279.86560	1522.94678	847.78717	73.06802	1493.64197	895.69733	36.84820	1478.90063	703.09735	35.87640	1264.09033	763.27563	638.58179	1283.34900	696.28735	471.78802	1301.00574	825.52728	335.09885	1363.03540	970.50848	184.12981	1423.09668	1017.41101	187.18790	1366.61450	894.32599	65.36271																					 
51	0.500	1461.86804	701.21234	1624.96545	1331.18445	724.37408	1627.50537	1480.56213	827.98456	1580.62292	1351.02441	845.88403	1582.79346	1431.86389	865.81641	1418.65051	1435.48022	894.33228	1105.15723	1408.40833	745.74158	1343.81506	1406.94409	698.84186	1180.12500	1347.08655	932.26868	1240.41333	1569.85022	762.32306	1380.10095	1643.64709	763.27527	1183.10779	1656.65491	761.98395	1059.57544	1659.18982	751.57410	929.89850	1634.96704	754.22772	809.50366	1689.67053	762.94708	820.27618	1685.54993	754.86359	737.73865	1260.47583	823.50763	1367.43457	1191.66431	824.98541	1143.51038	1179.61780	803.15417	1032.44910	1177.61804	777.84277	897.86346	1210.97998	737.10144	805.93945	1170.98132	773.12354	797.27081	1180.45447	743.34357	728.39185	1532.57935	712.26538	950.57684	1297.74792	748.43787	940.00690	1505.68237	879.44769	969.12982	1357.79980	899.86359	966.45001	1581.29968	747.44409	645.42505	1537.21387	741.70850	470.73312	1553.95398	803.30054	279.69531	1522.47437	847.42316	72.83823	1494.22107	896.43988	38.15622	1478.76843	703.00800	35.82521	1263.56921	746.40607	641.19330	1283.88977	675.43762	475.57971	1300.83740	798.58453	332.64941	1362.27405	936.35944	174.74503	1422.04871	983.54877	174.09772	1364.08228	852.73962	61.83574																					 
52	0.510	1461.51489	687.60522	1624.94910	1330.83643	710.76587	1627.48328	1480.14417	814.46814	1581.03223	1350.72046	832.46271	1583.26453	1431.52649	852.86938	1419.03735	1436.20520	881.71332	1105.64404	1408.12671	732.98633	1344.10730	1406.97937	686.15521	1180.43005	1346.95801	919.59552	1240.96155	1569.35828	749.39154	1380.74597	1643.94165	747.94897	1184.23718	1657.44275	743.75354	1060.99731	1659.42334	729.17468	931.50708	1635.74707	728.43036	811.36621	1689.50781	737.17682	821.62750	1685.77625	725.34064	739.88074	1260.27905	810.88330	1367.72583	1191.41833	814.44476	1143.74194	1179.16675	793.77197	1032.55896	1176.98059	770.51416	897.54108	1209.90356	731.10840	804.75305	1169.91113	767.59888	796.92706	1179.21008	739.25330	727.27881	1533.26624	700.13861	950.03674	1298.07373	734.67950	941.32849	1505.65051	867.01959	969.02917	1357.86035	887.27155	967.13232	1580.80884	739.88391	644.78174	1537.27197	737.67633	469.90207	1553.73059	800.94470	279.49973	1522.54565	847.39716	73.28139	1494.13049	896.61578	38.61897	1478.85266	703.05560	35.91512	1263.11267	728.82599	643.39471	1284.59778	655.17334	479.17865	1300.42725	771.80768	330.00421	1361.28479	901.33636	164.81155	1421.46790	948.63214	160.76997	1361.52820	810.40143	58.02407				1426.26440	778.18384	1686.28040															 
53	0.520	1461.16150	673.94104	1624.61182	1330.55005	697.12622	1627.16370	1479.79968	800.96045	1581.20862	1350.37268	818.97241	1583.44922	1431.18896	840.01367	1419.29163	1436.90454	869.08929	1105.89575	1407.82813	720.20087	1344.16577	1407.00598	673.41736	1180.34766	1346.94592	907.05237	1241.35681	1568.88965	736.53040	1381.11926	1644.24683	732.72900	1185.17444	1658.16724	725.33618	1062.13464	1659.82349	706.60742	933.22797	1634.55920	705.14557	812.22986	1689.18420	711.06287	823.10236	1685.61292	695.96338	742.08075	1260.09546	798.04822	1367.59900	1191.17810	803.72900	1143.70667	1178.57800	784.36584	1032.29297	1176.26038	763.09387	896.88110	1208.83728	725.29572	803.19897	1168.93201	761.91241	796.20764	1177.89404	735.17554	725.90863	1533.71692	688.00177	949.24146	1298.38843	721.97583	942.00470	1505.54895	854.64355	968.76135	1357.83923	874.70563	967.39838	1580.35791	732.07538	644.11334	1537.41968	733.57599	469.07733	1553.62378	798.68207	279.40414	1522.39026	847.25812	73.44275	1493.97461	896.38116	39.09863	1478.84473	702.93372	35.84498	1263.11584	711.05469	645.62164	1285.41394	635.49774	482.38251	1300.00488	745.09497	327.10172	1360.11548	865.22314	154.23941	1420.14832	912.20715	146.56026	1358.74255	767.44934	54.22408				1425.88904	764.28339	1686.39648															 
54	0.530	1460.79858	660.19812	1623.98145	1330.20227	683.41217	1626.59265	1479.46790	787.43134	1581.11609	1350.03247	805.46802	1583.40686	1430.74133	827.02881	1419.20056	1437.40649	856.46576	1105.84802	1407.54700	707.35583	1343.88831	1407.03418	660.86969	1179.97937	1346.96619	894.35693	1241.36194	1568.48926	723.81073	1381.24829	1644.68140	717.56287	1185.90527	1658.98865	707.01190	1063.19031	1660.09595	683.91290	934.97339	1634.51245	675.53333	814.96826	1688.75024	684.66504	824.64734	1685.30286	666.90936	744.28552	1259.83398	785.19873	1367.16223	1190.84412	792.81421	1143.32739	1177.95825	774.80341	1031.70923	1175.43604	755.57825	895.98761	1207.55176	719.07520	801.55695	1167.90833	756.12915	795.28967	1176.81177	730.58453	724.38818	1534.10986	675.54706	948.20892	1298.57751	709.16858	942.40106	1505.30786	842.32019	968.25385	1357.73926	862.11011	967.21967	1579.90027	723.86548	643.28619	1537.68140	729.42291	468.16537	1553.62952	796.62360	279.29236	1522.33264	847.13513	73.70547	1493.61609	896.14954	39.33380	1478.87842	702.76129	35.93641	1262.86328	694.03705	647.52313	1286.22314	616.44696	485.19003	1299.51672	718.62115	323.84744	1358.56201	827.90320	143.20538	1418.64197	874.51520	132.15703	1355.95764	723.80017	50.58538				1424.96326	750.20923	1686.31970															 
55	0.540	1460.46960	646.46930	1623.06409	1329.89722	669.75830	1625.76025	1479.11584	773.84747	1580.69995	1349.76099	791.93408	1583.03076	1430.22400	814.01208	1418.85132	1437.74817	843.82874	1105.49060	1407.31848	694.51117	1343.34094	1407.08057	648.25159	1179.32336	1347.00476	881.67615	1241.07739	1568.07190	711.10895	1381.08032	1645.08337	702.42267	1186.44482	1659.82617	688.75024	1064.12134	1660.40979	661.06458	936.72931	1633.73132	650.63788	816.55945	1688.23425	658.16144	826.21692	1684.44470	637.75165	746.50525	1259.61926	772.26617	1366.42664	1190.51501	781.70160	1142.59473	1177.31079	765.14038	1030.85034	1174.54053	747.92950	894.78784	1206.73877	713.28369	799.69702	1166.80115	750.08350	794.11725	1175.76355	725.78668	722.73602	1534.33301	664.26978	946.92719	1298.55103	696.11664	942.51837	1504.83459	830.10876	967.60089	1357.41321	849.50653	966.71802	1579.51245	716.00281	642.25793	1537.91138	725.32391	467.13528	1553.71545	794.68341	279.20374	1522.29993	847.00879	73.97095	1493.56628	896.12366	39.86433	1478.86780	702.54919	35.86643	1262.54407	677.51947	648.59766	1286.99402	598.08484	487.62949	1298.65918	692.14044	320.24857	1356.60803	789.93903	132.55757	1416.79504	835.95007	117.94398	1353.07654	679.72937	47.46849																					 
